<svg width="140" height="114" viewBox="0 0 140 114" fill="none" xmlns="http://www.w3.org/2000/svg">
<g clip-path="url(#clip0_26_318)">
<path d="M111.533 99.8196C111.165 100.125 110.79 100.427 110.411 100.726C110.12 100.954 109.829 101.179 109.534 101.398C108.558 102.135 107.553 102.843 106.516 103.524C105.187 104.397 103.807 105.224 102.383 105.999C102.314 106.035 102.248 106.07 102.179 106.109C101.669 106.381 101.156 106.651 100.635 106.908C99.9872 107.237 99.3282 107.554 98.6619 107.859C97.3839 108.448 96.0731 109.002 94.7333 109.514C93.3169 110.056 91.8714 110.55 90.3968 110.998C90.1019 111.086 89.8033 111.175 89.5048 111.261C89.0497 111.391 88.5909 111.519 88.1285 111.64C86.9816 111.948 85.8201 112.229 84.6404 112.478C83.4935 112.724 82.332 112.94 81.156 113.127C80.2348 113.272 79.3064 113.399 78.3706 113.509C77.9847 113.556 77.5951 113.597 77.2019 113.636C76.1205 113.745 75.0282 113.831 73.925 113.89C72.4249 113.973 70.9357 114.012 69.4575 113.994C68.9514 113.991 68.4489 113.982 67.9464 113.965C67.921 113.965 67.8918 113.962 67.8663 113.962H67.7972C67.3967 113.947 67.0144 113.932 66.632 113.92C64.9244 113.849 63.2204 113.707 61.5492 113.509C55.6544 112.813 50.0255 111.385 44.8116 109.342C41.0286 107.862 37.4713 106.056 34.1835 103.968C33.7648 103.713 33.3497 103.444 32.931 103.145C30.142 101.282 27.5714 99.2097 25.2558 96.9474C25.0701 96.7698 24.888 96.5862 24.7133 96.4055C23.1877 94.8747 21.7786 93.2639 20.5006 91.5791C20.4497 91.5228 20.4132 91.4665 20.3805 91.4103C15.5926 85.0973 12.5997 77.7777 11.937 69.8628C10.4551 52.0018 21.3708 35.7753 38.6983 26.7767C39.7032 26.2497 40.7336 25.7522 41.7822 25.2784C42.5978 24.9113 43.428 24.5559 44.2727 24.2184C44.7387 24.0318 45.2121 23.8483 45.689 23.6706C45.7582 23.6291 45.831 23.5995 45.9002 23.5877C47.535 22.9777 49.2244 22.427 50.9466 21.9591C51.8933 21.6897 52.8509 21.438 53.8194 21.207C54.9153 20.9494 56.0222 20.7155 57.1473 20.5082C60.0127 19.9782 62.9728 19.6229 66.0022 19.457H66.0094C66.0313 19.457 66.0531 19.4541 66.075 19.4541C71.1687 19.1787 76.1496 19.4333 80.9412 20.1855C80.9448 20.1825 80.9484 20.1855 80.9484 20.1855C81.3599 20.2476 81.7677 20.3157 82.1755 20.3868C83.8467 20.6711 85.4997 21.0234 87.1199 21.435C87.9537 21.6334 88.7729 21.8584 89.5922 22.1012C91.074 22.5276 92.5414 23.0103 93.9759 23.5373C94.9117 23.8808 95.8365 24.248 96.7467 24.6329C96.9361 24.7188 97.1472 24.8047 97.3366 24.8905C114.482 32.3227 126.65 46.5624 128.063 63.4788C129.224 77.4993 122.751 90.5131 111.533 99.8196V99.8196Z" fill="url(#paint0_linear_26_318)"/>
<path d="M110.411 100.726C110.12 100.954 109.829 101.179 109.534 101.398C108.558 102.135 107.553 102.843 106.516 103.524C105.187 104.397 103.807 105.224 102.383 105.999C102.314 106.035 102.248 106.07 102.179 106.109C101.669 106.381 101.156 106.651 100.635 106.908C99.9872 107.237 99.3282 107.554 98.6619 107.859C97.3839 108.448 96.0731 109.002 94.7333 109.514C93.3169 110.056 91.8714 110.55 90.3968 110.998C90.1019 111.086 89.8033 111.175 89.5048 111.261C89.0497 111.391 88.5909 111.519 88.1285 111.64C86.9816 111.948 85.8201 112.229 84.6404 112.478C83.4935 112.724 82.332 112.94 81.156 113.127C79.5285 110.497 78.4871 108.27 78.2031 106.624C77.7953 104.24 79.3682 101.17 82.139 98.3421C83.2095 97.2465 84.462 96.1894 85.8492 95.2211C85.9512 95.1501 86.0568 95.079 86.1623 95.008C87.3966 94.17 88.7293 93.4031 90.1347 92.7487C91.6311 92.0499 93.2077 91.4725 94.8279 91.0668C95.0318 91.0105 95.2394 90.9632 95.4469 90.9158C95.7345 90.8507 96.0222 90.7914 96.3134 90.7411C97.7225 90.4776 99.1571 90.3502 100.592 90.3828C101.473 90.4035 102.354 90.4835 103.231 90.6315C103.231 90.6315 105.197 92.8138 108.351 96.3019C109.308 97.362 110.375 98.5434 111.533 99.8196C111.165 100.125 110.79 100.427 110.411 100.726V100.726Z" fill="black"/>
<path d="M75.3813 46.9532L53.8193 47.1072L57.2309 83.83L87.8262 91.6412L85.263 80.0369L75.3813 46.9532Z" fill="#FDCBB2"/>
<path d="M54.8025 57.7018L79.0588 59.2652L83.195 73.117L54.8025 57.7018Z" fill="#EAB7A0"/>
<path d="M86.3663 68.6933L54.8025 57.7019L35.7747 10.3164C115.494 -18.2636 93.4917 61.9273 93.4917 61.9273C93.4917 61.9273 105.369 66.3422 86.3627 68.6962L86.3663 68.6933Z" fill="#FDCBB2"/>
<path d="M53.8194 21.1093C53.6264 8.34129 78.4726 11.2283 50.9831 6.7749C24.5859 2.49916 36.9106 25.4265 40.8393 29.7822C50.1274 40.0747 44.7351 38.4936 50.9758 41.8691L59.1753 44.2705C54.8025 29.4653 53.9614 30.3685 53.8194 21.1123V21.1093Z" fill="#005C82"/>
<path d="M66.0822 19.4689C85.6999 22.5069 91.1942 16.875 91.1942 16.875C95.9056 9.11117 95.3194 -2.98467 72.7198 0.67221C57.322 3.1654 36.1751 6.69496 39.0952 13.6327C50.9757 41.8632 47.4003 16.576 66.0822 19.4689Z" fill="#005C82"/>
<path d="M52.8051 46.7767C55.4882 45.1644 54.7474 40.6481 51.1505 36.6892C47.5536 32.7303 42.4627 30.8279 39.7796 32.4401C37.0966 34.0524 37.8374 38.5687 41.4343 42.5276C45.0311 46.4865 50.1221 48.3889 52.8051 46.7767Z" fill="#FDCBB2"/>
<path d="M41.3635 35.4289C44.5312 34.6383 47.4658 36.7347 48.7402 38.9348C48.9113 39.2634 49.0897 39.5891 49.2499 39.9178C49.0169 39.6158 48.8057 39.3078 48.5836 39.0058C47.0799 36.9745 44.4875 35.041 41.3635 35.4289V35.4289Z" fill="#CA807A"/>
<path d="M81.6256 31.4344L63.8175 32.6307C63.8175 32.6307 65.4159 28.8494 72.6906 28.4112C79.9653 27.973 81.6293 31.4315 81.6293 31.4315L81.6256 31.4344Z" fill="#001848"/>
<path d="M96.237 32.4353L86.8942 31.9052C86.8942 31.9052 88.5399 28.1388 92.4394 28.6066C96.2552 29.0626 96.237 32.4353 96.237 32.4353V32.4353Z" fill="#001848"/>
<path d="M69.7961 39.601C70.182 37.6348 72.2028 35.7131 74.7333 35.5295C75.5416 35.4703 76.3499 35.6006 77.0926 35.8612C77.1982 35.8997 77.2929 35.7723 77.1837 35.7339C75.8765 35.2749 74.4456 35.2453 73.1421 35.7309C71.937 36.178 70.9539 36.9953 70.3204 37.9339C69.9781 38.4402 69.7305 38.994 69.6177 39.5654C69.5995 39.6572 69.7742 39.6987 69.7924 39.6039L69.7961 39.601Z" fill="#001848"/>
<path d="M77.3285 38.8006C77.5539 37.459 76.8644 36.2745 75.7885 36.155C74.7127 36.0354 73.6578 37.0261 73.4324 38.3677C73.207 39.7093 73.8965 40.8938 74.9723 41.0133C76.0482 41.1329 77.1031 40.1422 77.3285 38.8006Z" fill="#001848"/>
<path d="M82.9 32.838C88.9186 43.7435 95.0391 49.9291 95.0391 49.9291L90.3859 50.3822L83.752 48.4427L82.9 32.838V32.838Z" fill="#EAB7A0"/>
<path d="M88.813 37.8066C88.9259 37.0486 89.4356 36.3231 90.0582 35.7635C90.6808 35.2039 91.4964 34.7271 92.4321 34.7479C93.0147 34.7597 93.5208 34.9936 93.9249 35.3193C94.0087 35.3874 94.1361 35.2809 94.0524 35.2157C93.3133 34.6205 92.3302 34.4429 91.369 34.7804C90.4077 35.118 89.6431 35.8138 89.148 36.5511C88.8858 36.942 88.6928 37.3625 88.6273 37.8066C88.6127 37.9014 88.7948 37.9014 88.8093 37.8066H88.813Z" fill="#001848"/>
<path d="M93.5087 37.8259C93.7894 36.7743 93.5168 35.8336 92.8998 35.7246C92.2827 35.6156 91.5549 36.3798 91.2742 37.4313C90.9935 38.4829 91.2661 39.4237 91.8831 39.5326C92.5001 39.6416 93.2279 38.8774 93.5087 37.8259Z" fill="#001848"/>
<path d="M76.4299 52.7184C77.6424 54.957 81.1559 55.6943 83.8576 54.9984C84.2544 54.9037 84.6258 54.7467 84.9608 54.5483C82.2919 56.0733 77.6752 55.2856 76.4299 52.7155V52.7184Z" fill="#CA807A"/>
<path fill-rule="evenodd" clip-rule="evenodd" d="M76.0229 52.7883V52.7155L76.7528 52.6025L76.8023 52.5847C76.804 52.5878 76.8057 52.5909 76.8074 52.594L76.8085 52.5939C76.8118 52.6006 76.8151 52.6073 76.8184 52.614C77.9351 54.6253 81.1719 55.3426 83.7348 54.6825L83.7389 54.6814L83.743 54.6804C83.8789 54.648 84.0121 54.607 84.1422 54.5584C84.3466 54.4764 84.5422 54.3827 84.727 54.2771L85.2002 54.8164C84.9818 54.9457 84.7475 55.0601 84.4995 55.154C83.1573 55.6921 81.5347 55.7825 80.0647 55.4895C78.3437 55.1465 76.7626 54.2627 76.0697 52.8744C76.0656 52.867 76.0616 52.8596 76.0576 52.8522L76.0229 52.7883ZM76.4299 52.7155V52.7184C76.4346 52.7271 76.4393 52.7357 76.444 52.7442C77.5488 54.9679 81.1886 55.8418 83.8644 55.0174C83.8645 55.0173 83.8647 55.0173 83.8649 55.0172C84.0202 54.9694 84.1723 54.9158 84.3204 54.8564C84.5454 54.7716 84.7597 54.6675 84.9608 54.5484C84.7578 54.6643 84.5436 54.7669 84.3204 54.8564C84.1707 54.9128 84.0162 54.9606 83.8576 54.9984C81.1663 55.6916 77.6694 54.9626 76.444 52.7442C76.4398 52.7356 76.4355 52.7271 76.4314 52.7184C76.4313 52.7183 76.4312 52.7182 76.4311 52.718C76.4307 52.7172 76.4303 52.7163 76.4299 52.7155Z" fill="#CA807A"/>
<path d="M61.5492 113.509C55.6544 112.813 50.0254 111.385 44.8115 109.342C43.4352 98.5286 43.1075 90.9099 44.4692 90.0275C45.5215 89.3435 46.4063 88.4877 47.1818 87.558C47.4549 87.2293 47.7134 86.8917 47.9646 86.5483C50.5315 83.0069 51.9151 78.9117 54.9808 78.9117C55.3012 78.9117 55.7345 78.9354 56.2588 78.9799C56.4263 78.9947 56.601 79.0124 56.7867 79.0302C57.5222 79.1012 58.3997 79.2049 59.3864 79.3322C59.4192 79.3352 59.4556 79.3411 59.492 79.347C65.354 80.1021 75.0063 81.6655 81.9278 82.5301C82.4084 82.5894 82.8781 82.6486 83.3296 82.6989C84.0869 82.7877 84.8006 82.8677 85.4632 82.9299C85.6161 82.9447 85.7654 82.9595 85.9111 82.9713C86.5701 83.0335 87.1672 83.0779 87.6915 83.1075C88.041 83.1253 88.3578 83.1342 88.6418 83.1371C89.4246 83.1431 90.3676 83.7797 91.4345 84.9611C91.7512 85.3076 92.0753 85.7014 92.4102 86.1426C93.3533 87.3862 94.3764 88.9941 95.4468 90.9158C97.1581 93.9716 98.9932 97.8209 100.857 102.26C101.363 103.465 101.873 104.711 102.383 105.999C102.314 106.035 102.248 106.07 102.179 106.109C101.669 106.381 101.156 106.651 100.635 106.908C99.9872 107.237 99.3281 107.554 98.6618 107.859C97.3838 108.448 96.0731 109.002 94.7332 109.514C93.3168 110.056 91.8714 110.55 90.3968 110.998C90.1018 111.086 89.8033 111.175 89.5047 111.261C89.0496 111.391 88.5908 111.519 88.1284 111.64C86.9815 111.948 85.82 112.229 84.6404 112.478C83.4934 112.724 82.332 112.94 81.1559 113.127C80.2347 113.272 79.3063 113.399 78.3706 113.509C77.9846 113.556 77.595 113.597 77.2018 113.636C76.1204 113.745 75.0281 113.831 73.9249 113.89C72.4248 113.973 70.9356 114.012 69.4574 113.994C68.9513 113.991 68.4488 113.982 67.9464 113.965C67.9209 113.965 67.8918 113.962 67.8663 113.962H67.7971C67.3966 113.947 67.0143 113.932 66.632 113.92C64.9244 113.849 63.2204 113.707 61.5492 113.509V113.509Z" fill="#D4D5D6"/>
<path d="M108.351 96.3019C108.693 97.5603 109.093 99.2807 109.534 101.398C108.558 102.135 107.553 102.843 106.516 103.524C105.187 104.397 103.807 105.223 102.383 105.999C102.314 106.035 102.248 106.07 102.179 106.109C101.739 104.788 101.298 103.503 100.857 102.259C99.2845 97.809 97.7335 93.9005 96.3135 90.7411C94.8971 87.5875 93.6155 85.1861 92.5851 83.7471C92.5851 83.7471 97.1363 86.4623 101.349 89.3109C103.843 90.9987 106.221 92.7309 107.462 93.9745C107.695 94.2084 107.994 95.0079 108.351 96.3019V96.3019Z" fill="black"/>
<path d="M94.7332 109.514C93.3169 110.056 91.8714 110.55 90.3968 110.998C90.1019 111.086 89.8033 111.175 89.5047 111.261C88.1284 105.274 86.8723 99.7486 85.8492 95.2212C85.4923 93.6459 85.1647 92.192 84.8697 90.8832C83.8175 86.2078 83.184 83.3563 83.184 83.3563C83.1912 83.3533 83.2022 83.3533 83.2094 83.3533C83.4097 83.3148 83.5845 83.3504 84.1051 83.2615C84.411 83.2082 84.837 83.1105 85.4632 82.9299C85.5907 82.8914 85.729 82.8529 85.8747 82.8055C86.3116 82.6723 86.8286 82.5035 87.4439 82.2874C87.4439 82.2874 87.5386 82.5923 87.6915 83.1076C87.9027 83.8241 88.2267 84.9464 88.5763 86.2048C89.1952 88.4404 89.8834 91.1142 90.1346 92.7487C90.1783 93.0389 90.2074 93.2935 90.222 93.5097C90.2766 94.3921 92.1372 100.812 94.7332 109.514V109.514Z" fill="url(#paint1_linear_26_318)"/>
<path d="M88.1285 111.64C86.9816 111.948 85.8201 112.229 84.6404 112.478C83.7338 106.68 82.8709 101.685 82.1391 98.3421C81.724 96.4323 81.349 95.0613 81.0359 94.3921C81.0359 94.3921 77.6315 91.1142 74.4165 88.4226C74.2964 88.322 74.1762 88.2213 74.0561 88.1236C72.4832 86.8207 70.9831 85.6955 70 85.2129C70 85.2129 82.0954 82.3348 83.184 83.3563C83.763 83.8923 84.1343 87.8956 84.888 90.8892C85.041 91.4814 85.2048 92.0351 85.3905 92.5148C85.6126 93.1692 85.8711 94.0101 86.1624 95.008C87.2183 98.6145 88.7111 104.306 90.3969 110.998C90.1019 111.086 89.8034 111.175 89.5048 111.261C89.0497 111.391 88.5909 111.519 88.1285 111.64Z" fill="url(#paint2_linear_26_318)"/>
<path d="M106.515 103.524C105.187 104.397 103.807 105.224 102.383 105.999C102.314 106.035 102.248 106.07 102.179 106.109C101.669 106.381 101.156 106.651 100.635 106.908C98.5745 100.77 96.5464 95.1205 94.8279 91.0668C93.9213 88.926 93.1021 87.2293 92.4103 86.1426C92.1627 85.7577 91.9333 85.4468 91.7221 85.2217C91.591 85.0826 91.46 84.9434 91.3362 84.8101C86.5373 79.7112 86.3662 79.2523 86.3662 79.2523L86.5483 78.1152C86.7267 78.2426 86.9051 78.3758 87.0871 78.5061C92.8872 82.693 101.844 88.6092 101.844 88.6092L101.349 89.3109L100.592 90.3828L100.246 90.8744L105.015 93.1247L106.515 103.524V103.524Z" fill="#26282D"/>
<path d="M61.5492 113.508C55.6544 112.813 50.0254 111.385 44.8115 109.342C41.0285 107.862 37.4713 106.056 34.1835 103.968C33.7647 103.713 33.3497 103.444 32.931 103.145C30.142 101.282 27.5714 99.2096 25.2557 96.9474C25.5215 96.2427 25.7946 95.5794 26.0713 94.9576C26.9889 92.8789 27.9319 91.2474 28.6928 90.0126C30.8629 86.486 38.4944 82.9683 44.7933 78.4883C47.6624 76.4511 50.2548 74.2155 51.9297 71.6868C51.9297 71.6868 53.4298 74.3251 56.2588 78.9798C56.4554 79.3055 56.6593 79.6431 56.8741 79.9895C57.6897 81.3309 58.6073 82.8173 59.6158 84.437C61.2215 87.0161 63.0638 89.9327 65.1283 93.1365C68.0374 97.6492 72.9237 105.123 77.2018 113.636C76.1204 113.745 75.0281 113.831 73.9249 113.89C72.4248 113.973 70.9357 114.012 69.4574 113.994C68.9513 113.991 68.4489 113.982 67.9464 113.964C67.9209 113.964 67.8918 113.962 67.8663 113.962H67.7971C67.3966 113.947 67.0143 113.932 66.632 113.92C64.9244 113.849 63.2204 113.707 61.5492 113.508V113.508Z" fill="black"/>
<path d="M66.8395 88.7602C69.6467 92.9737 74.3145 102.976 78.3706 113.509C77.9846 113.556 77.595 113.597 77.2018 113.636C76.1204 113.745 75.0281 113.831 73.9249 113.891C72.4248 113.973 70.9356 114.012 69.4574 113.994C68.9513 113.991 68.4488 113.982 67.9464 113.965C59.9289 103.784 52.261 94.3151 52.261 94.3151L52.7161 93.4771L56.9178 85.7547L47.9646 86.5483L45.8055 86.7378L44.7933 78.4883L44.6185 77.0493L50.5934 69.5608C50.5934 69.5608 51.8969 70.9051 53.8193 72.9867C54.624 73.8573 55.5306 74.8522 56.4955 75.93C57.4567 77.0019 58.4689 78.1537 59.492 79.347C60.2311 80.2087 60.9775 81.0911 61.7057 81.9764L61.7895 82.0771C62.798 83.303 63.7774 84.5348 64.6768 85.731C65.4669 86.7792 66.1987 87.7978 66.8395 88.7602V88.7602Z" fill="#26282D"/>
<path d="M85.5543 76.2379L91.7404 85.4112L94.1216 91.055C94.1216 91.055 85.2485 82.7344 83.7193 83.2526C82.1973 83.7797 85.558 76.2379 85.558 76.2379H85.5543Z" fill="white"/>
<path d="M53.8193 72.9896L61.7057 81.9793L69.9999 91.6412C69.9999 91.6412 81.6548 82.841 83.184 83.3592C84.1088 83.6819 63.2459 71.3966 54.4347 68.2875L53.8193 72.9926V72.9896Z" fill="white"/>
<path d="M69.4575 113.994C68.9514 113.991 68.4489 113.982 67.9464 113.965C67.921 113.965 67.8918 113.962 67.8663 113.962H67.7972C67.3966 113.947 67.0143 113.932 66.632 113.92C64.9244 113.849 63.2204 113.707 61.5492 113.509C55.6544 112.813 50.0255 111.385 44.8116 109.342C41.0286 107.862 37.4713 106.056 34.1835 103.968C33.7648 103.713 33.3497 103.444 32.931 103.145C30.142 101.282 27.5714 99.2097 25.2558 96.9474C25.0701 96.7698 24.888 96.5862 24.7133 96.4055C25.1247 95.9199 25.5798 95.4343 26.0713 94.9576C30.9139 90.2644 39.3573 86.2966 47.1818 87.558C47.4731 87.6024 47.7571 87.6557 48.0448 87.7149C48.0448 87.7149 49.8361 89.9298 52.7162 93.4771C56.7831 98.4872 63.0238 106.156 69.4575 113.994V113.994Z" fill="black"/>
</g>
<defs>
<linearGradient id="paint0_linear_26_318" x1="45.3978" y1="23.7683" x2="80.0274" y2="115.09" gradientUnits="userSpaceOnUse">
<stop stop-color="#E16E56"/>
<stop offset="1" stop-color="#E85D2C"/>
</linearGradient>
<linearGradient id="paint1_linear_26_318" x1="83.184" y1="96.7757" x2="94.7332" y2="96.7757" gradientUnits="userSpaceOnUse">
<stop stop-color="#DB8E76"/>
<stop offset="0.48" stop-color="#CE5B4D"/>
<stop offset="1" stop-color="#C22926"/>
</linearGradient>
<linearGradient id="paint2_linear_26_318" x1="70" y1="97.8091" x2="90.3969" y2="97.8091" gradientUnits="userSpaceOnUse">
<stop stop-color="#E16E56"/>
<stop offset="1" stop-color="#E85D2C"/>
</linearGradient>
<clipPath id="clip0_26_318">
<rect width="140" height="114" fill="white"/>
</clipPath>
</defs>
</svg>
