<svg width="133" height="112" viewBox="0 0 133 112" fill="none" xmlns="http://www.w3.org/2000/svg">
<g clip-path="url(#clip0_26_289)">
<path d="M127.852 60.2885C127.852 73.159 122.274 84.9294 113.042 93.9788C112.436 94.5838 111.794 95.1856 111.153 95.7583C108.344 98.2787 105.227 100.553 101.848 102.549C100.344 103.462 98.766 104.313 97.15 105.102C97.0425 105.147 96.9311 105.209 96.8198 105.257C96.436 105.442 96.0483 105.63 95.6452 105.814H95.626C95.626 105.814 95.5876 105.846 95.5723 105.846C89.5532 108.583 82.9277 110.486 75.9182 111.382C75.8991 111.382 75.8645 111.382 75.8453 111.398C75.7532 111.398 75.6419 111.414 75.5536 111.431C75.5152 111.431 75.4998 111.447 75.4614 111.447C73.2772 111.725 71.0393 111.896 68.7822 111.974C68.0298 111.99 67.2582 112.006 66.5058 112.006C61.7535 112.006 57.1087 111.544 52.6482 110.677C52.4102 110.631 52.1722 110.583 51.915 110.538C50.2106 110.182 48.5178 109.781 46.8672 109.302C35.616 106.099 25.8351 100.223 18.5684 92.5649C18.365 92.3482 18.1462 92.1314 17.9466 91.8985C9.91991 83.1532 5.14844 72.1851 5.14844 60.2885C5.14844 40.6755 18.1232 23.5991 37.209 14.8279C38.7522 14.1323 40.3299 13.482 41.9613 12.8931C44.8979 11.7963 47.9612 10.913 51.1204 10.2174C54.4217 9.50565 57.8381 9.01063 61.3428 8.76474C63.051 8.64179 64.7554 8.58032 66.4981 8.58032C67.9645 8.58032 69.4347 8.62562 70.8857 8.71944C71.7494 8.76474 72.6093 8.84239 73.473 8.92004C78.0257 9.33741 82.4286 10.2045 86.6128 11.4275C94.2671 13.6696 101.238 17.1509 107.169 21.5737C119.848 31.0405 127.852 44.8848 127.852 60.2918V60.2885Z" fill="url(#paint0_linear_26_289)"/>
<path d="M93.3266 73.5796C86.728 49.9255 104.202 -0.0291059 63.408 1.27244e-05C36.2955 0.0194252 36.8175 31.0243 36.8175 50.1747C34.641 80.3286 69.5077 63.5692 93.3266 73.5796V73.5796Z" fill="black"/>
<path d="M61.8686 39.2034L53.3007 39.7373L55.1548 58.4864L42.5754 63.6728L55.7574 64.6014C55.7574 64.6014 67.7149 72.9487 79.5687 65.339C83.7068 62.6828 69.2581 57.3379 69.2581 57.3379L61.8686 39.2002V39.2034Z" fill="#FDCBB2"/>
<path d="M53.9111 42.1152L65.4694 48.0393L67.715 53.5459L55.6961 49.0875L53.9111 42.1152Z" fill="#EAB7A0"/>
<path d="M43.9843 35.6444C42.4949 31.5225 44.4564 26.1259 49.5849 28.5136C56.7555 28.2936 47.7462 9.11733 65.573 8.03994C85.8258 5.20249 91.1194 38.456 75.3462 49.2687C65.9185 50.2652 56.602 46.9133 52.1606 41.0864C48.8863 40.5202 45.3278 39.5204 43.9804 35.6477L43.9843 35.6444Z" fill="#FDCBB2"/>
<path d="M60.8207 27.0739C61.5615 26.0192 62.6901 25.1909 63.9914 24.793C65.2774 24.3853 66.7476 24.4597 67.8263 25.0292C66.6094 24.7024 65.335 24.9418 64.3983 25.4854C63.4463 26.0289 62.7938 26.8507 62.4905 27.7113L60.8207 27.0707V27.0739Z" fill="#001848"/>
<path d="M68.1564 26.9769C68.0105 24.67 64.7822 24.8415 64.9857 27.1483C65.1315 29.4552 68.3599 29.2837 68.1564 26.9769Z" fill="black"/>
<path d="M82.1138 25.2783C81.5841 24.6507 80.7626 24.1265 79.7991 24.0068C78.8394 23.8645 77.7684 24.2657 77.0621 25.0098C77.4882 24.1492 78.4863 23.3597 79.7914 23.2336C81.0735 23.0912 82.3864 23.4989 83.419 24.188L82.1177 25.2783H82.1138Z" fill="#001848"/>
<path d="M81.5496 25.8961C80.8356 23.5116 78.8433 24.7864 79.469 26.7276C80.183 29.1121 82.1753 27.8374 81.5496 25.8961Z" fill="black"/>
<path d="M72.663 23.9517C74.8625 32.629 80.1983 31.8137 80.1983 31.8137C78.5285 34.1852 74.3366 36.3206 74.3366 36.3206L72.663 23.9517V23.9517Z" fill="#EAB7A0"/>
<path d="M67.0164 36.4921C68.8436 37.4045 70.5249 38.2845 72.3521 38.841C73.2504 39.1289 74.1793 39.3295 75.0814 39.3425C75.9797 39.3651 76.8549 39.0739 77.4691 38.3071C77.4422 39.213 76.3866 40.1287 75.2081 40.2387C74.0488 40.4328 72.9087 40.2354 71.8761 39.9248C69.8224 39.2648 68.0797 38.0483 67.0164 36.4856V36.4921Z" fill="#CA807A"/>
<path d="M58.0991 21.8585C58.3102 20.9202 70.1679 19.0048 71.0355 21.4573C69.7303 15.4556 58.4024 20.0855 58.0991 21.8585Z" fill="black"/>
<path d="M83.7952 21.6319C83.8451 19.4901 76.3213 20.0078 75.8722 20.5998C77.9988 18.3901 85.0082 17.2965 83.7952 21.6319Z" fill="black"/>
<path d="M49.75 34.4538C49.558 33.2147 49.1473 32.4543 48.606 31.6325C48.368 31.2119 48.0072 30.8269 47.7039 30.3707C47.3623 29.934 47.0015 29.4778 46.6829 28.8889C47.4352 28.9472 48.1108 29.1769 48.7135 29.5133C49.3047 29.866 49.8344 30.3125 50.2106 30.8787C50.5638 31.4449 50.7979 32.0984 50.7288 32.7617C50.6751 33.4088 50.3718 34.0656 49.75 34.4538V34.4538Z" fill="#CA807A"/>
<path d="M95.6259 105.814C95.6259 105.814 95.5875 105.846 95.5722 105.846C89.5531 108.584 82.9276 110.486 75.9182 111.382C75.899 111.382 75.8644 111.382 75.8452 111.398C75.7531 111.398 75.6418 111.414 75.5535 111.431C75.5151 111.431 75.4998 111.447 75.4614 111.447C73.2772 111.725 71.0392 111.897 68.7821 111.974C68.0297 111.99 67.2581 112.007 66.5057 112.007C61.7535 112.007 57.1087 111.544 52.6481 110.677C52.4101 110.632 52.1721 110.583 51.9149 110.538C51.8612 110.243 51.8036 109.949 51.7499 109.654C49.6041 98.6573 41.7847 76.9995 37.8961 71.5705V71.5543C37.5468 71.0755 37.2359 70.7196 36.9595 70.519L37.6005 70.1016L43.1781 66.4197L45.4353 64.9347L45.6003 64.8279L45.6541 64.7956L46.8824 63.9899L49.9649 61.9484L51.3967 61.0037C51.6347 61.2657 51.9457 61.5278 52.3871 61.7931H52.4063C56.6826 64.5011 69.8416 67.4712 69.9874 68.0568C71.6035 66.3259 75.1811 66.7562 77.4767 64.7794C78.1177 64.2229 78.6513 63.4787 79.0198 62.4596C79.0198 62.4596 79.1311 62.5049 79.3154 62.5987C79.3154 62.5987 79.3346 62.6149 79.3538 62.6149C80.4363 63.1261 84.1253 64.7794 88.0714 65.9085C89.1731 66.2191 90.3094 66.4974 91.4111 66.6818C91.6299 66.7271 91.8717 66.7594 92.1097 66.7886C93.1385 66.9439 94.1096 67.0053 95.0271 66.973C94.1826 68.5519 93.5031 70.2375 92.9542 71.9846V72.0008C92.8237 72.4182 92.697 72.8355 92.5857 73.2691C92.5473 73.4406 92.4936 73.6088 92.459 73.7964C91.7066 76.7827 91.3228 79.9372 91.246 83.1079C91.1731 85.3048 91.2652 87.4854 91.484 89.6338C92.0521 95.6678 93.5761 101.343 95.5031 105.536C95.5415 105.63 95.5952 105.72 95.6336 105.814H95.6259Z" fill="white"/>
<path d="M75.5497 111.427C75.5113 111.427 75.4959 111.444 75.4575 111.444C73.2733 111.722 71.0354 111.893 68.7782 111.971C68.0259 111.987 67.2543 112.003 66.5019 112.003C61.7496 112.003 57.1048 111.541 52.6443 110.674C52.4063 110.628 52.1683 110.58 51.9111 110.534C50.2067 110.179 48.5139 109.777 46.8633 109.298C46.6982 108.726 46.441 108.108 46.1493 107.458C44.9017 104.737 42.7712 101.501 41.3586 98.6411C40.9172 96.6772 40.422 94.2183 39.873 91.5102C38.0727 82.367 35.9845 70.4122 35.1016 65.4458C35.4125 65.1514 35.8885 64.9055 36.5142 64.7049C37.4316 64.3814 38.6408 64.1322 40.0726 63.8216C41.5237 63.5272 43.1743 63.1713 44.9171 62.7087H44.9362C45.1205 62.6472 45.3009 62.6019 45.4852 62.5372C45.5236 62.5372 45.5581 62.521 45.5965 62.521V62.5048C47.0091 62.1036 48.4793 61.5925 49.9265 60.9421C49.9073 61.2527 49.9073 61.5763 49.9611 61.9483C50.0532 62.6148 50.2566 63.3881 50.5484 64.239C51.0628 65.6788 51.8343 67.3644 52.8055 69.2054C56.126 75.5176 61.669 83.5609 65.7802 89.7308C65.7802 89.7469 65.7994 89.7469 65.7994 89.7469C66.2754 90.4587 66.7361 91.1382 67.1775 91.7885V91.8047C67.3618 92.0991 67.5422 92.3935 67.7265 92.6717C68.4788 93.8009 69.1391 94.8362 69.6727 95.7195C69.711 95.781 69.7456 95.8586 69.784 95.9201V95.9363C69.8377 95.9977 69.8761 96.043 69.8953 96.1077V96.1239C70.4826 97.0816 70.8857 97.8419 71.0891 98.3661C71.0891 98.3822 71.1083 98.4114 71.1083 98.4275C71.1467 98.489 71.1621 98.5505 71.1813 98.612C71.6035 99.8479 73.6227 105.71 75.5497 111.434V111.427Z" fill="black"/>
<path d="M52.1146 58.4863L45.6003 60.7446V68.6843L50.6981 67.5131L47.7654 71.6868C47.7654 71.6868 50.5446 77.5429 56.7248 83.7937C59.2967 86.3949 69.3924 103.847 69.3924 103.847C69.3924 103.847 67.0393 90.0898 63.0778 83.6901C57.719 74.0616 51.819 65.2904 52.1184 58.4863H52.1146Z" fill="black"/>
<path d="M101.848 102.549C100.344 103.462 98.766 104.313 97.1499 105.102C97.0424 105.147 96.9311 105.209 96.8198 105.257C96.4359 105.442 96.0482 105.629 95.6451 105.814H95.6259C95.6259 105.814 95.5876 105.846 95.5722 105.846C89.5532 108.583 82.9276 110.486 75.9182 111.382C75.899 111.382 75.8644 111.382 75.8453 111.398C75.7531 111.398 75.6418 111.414 75.5535 111.431C75.5151 111.431 75.4998 111.447 75.4614 111.447C73.2772 111.725 71.0392 111.896 68.7821 111.974C68.3598 109.143 67.7725 105.617 67.0201 100.899C67.0009 100.76 66.9818 100.621 66.9472 100.466V100.42C66.9127 100.097 66.8551 99.7863 66.8013 99.4466V99.4304C66.6363 98.4404 66.4712 97.4051 66.3062 96.305C66.3983 95.9038 66.69 95.1144 67.1507 94.0467C67.3157 93.6294 67.5153 93.1667 67.738 92.6717C70.0527 87.3818 74.5823 77.7435 77.2617 70.1339C77.7953 68.6326 78.2521 67.2414 78.5822 65.9569V65.9408C78.9315 64.7048 79.1887 63.5757 79.3154 62.5986V62.5824C79.4613 61.4533 79.4421 60.5409 79.2233 59.9067L79.2425 59.9229C82.9123 61.0974 85.7567 61.9192 87.9793 62.5048C89.2115 62.8445 90.2556 63.1066 91.1347 63.3395C91.3727 63.401 91.6107 63.4624 91.8333 63.5239C93.2844 63.9122 94.2939 64.2034 95.0809 64.5754C95.0809 64.5754 102.075 92.0472 101.852 94.7391C101.687 96.5186 101.338 99.4401 101.852 102.549H101.848Z" fill="black"/>
<path d="M73.8185 59.1431L87.9333 61.1361L88.1214 67.662L81.6801 67.1928L84.9775 73.2624C84.9775 73.2624 86.0408 73.5989 79.8221 80.6683C77.4306 83.4248 66.8474 101.174 66.8474 101.174C61.5923 90.4521 86.5321 64.0092 73.8185 59.1399V59.1431Z" fill="black"/>
<path d="M91.4035 66.6784C91.2384 65.3486 91.1463 64.2194 91.1271 63.3362C91.3305 63.3362 91.5493 63.3524 91.8065 63.3685C95.3842 63.663 104.616 66.2772 107.845 78.1252C108.854 81.7748 110.946 87.7603 113.038 93.9787C112.432 94.5837 111.791 95.1855 111.15 95.7582C108.34 98.2786 105.223 100.553 101.845 102.549C100.34 103.462 98.7622 104.313 97.1461 105.102C96.4667 96.47 94.0061 83.4151 92.4476 73.7962C92.4092 73.5795 92.3746 73.3789 92.3363 73.1783C91.9524 70.7194 91.6184 68.5064 91.3996 66.6816L91.4035 66.6784Z" fill="black"/>
<path d="M52.8286 110.065C52.7748 110.266 52.7019 110.467 52.6443 110.667C52.4063 110.622 52.1683 110.573 51.9111 110.528C50.2068 110.172 48.5139 109.771 46.8633 109.292C35.6121 106.089 25.8312 100.214 18.5646 92.5553C21.4628 87.3269 24.6949 81.8202 26.7486 77.5366C31.5201 67.6686 33.7043 63.9414 36.495 64.65C36.495 64.65 36.495 64.6661 36.5142 64.6953C36.5871 65.0511 37.0286 67.1703 37.5967 70.0951C37.6888 70.5578 37.8002 71.0528 37.8923 71.5478V71.564C39.3241 79.0346 41.1782 90.0479 39.9652 91.41C39.9268 91.4423 39.9114 91.4715 39.8731 91.5038C37.7464 94.3218 35.6966 97.6511 34.6947 98.104L46.1493 107.451L51.7461 109.648L52.8286 110.065Z" fill="black"/>
<path d="M96.8198 105.254C96.4359 105.439 96.0482 105.626 95.6451 105.811H95.6259C95.6259 105.811 95.5876 105.843 95.5722 105.843L95.4993 105.532L94.1058 100.398C93.1692 96.826 92.2709 93.2347 91.4802 89.6304C91.461 89.5366 91.4418 89.459 91.4264 89.3684C90.6549 85.6703 90.033 81.9593 89.6645 78.2159C89.4802 76.2197 89.3689 74.2105 89.4265 72.1981V72.1819C89.4649 70.4348 89.6453 68.7006 90.0522 66.9858C89.795 68.7653 89.7566 70.5286 89.8334 72.3081V72.3243C89.9063 74.272 90.1443 76.2229 90.4015 78.1415C90.6395 79.811 90.9159 81.4675 91.246 83.1079C91.6491 85.1494 92.1097 87.1748 92.5857 89.1872C93.4302 92.8529 94.4014 96.5024 95.411 100.155L96.8236 105.261L96.8198 105.254Z" fill="#414042"/>
<path d="M45.539 60.7834C45.6311 63.43 45.681 66.0766 45.6925 68.7231L45.5006 68.6002L50.5868 67.3934L51.0552 67.2834L50.8095 67.636C49.8383 69.0305 48.8978 70.4379 47.8921 71.8162L47.9075 71.6576C48.99 73.8415 50.3412 75.9446 51.8152 77.9732C53.3123 79.992 54.9207 81.9527 56.6673 83.8325C54.8056 82.0368 53.0858 80.1247 51.5695 78.1026C50.0494 76.0837 48.6522 74.0001 47.5082 71.7935L47.466 71.7159L47.5197 71.635C48.4717 70.2308 49.4851 68.859 50.4717 67.471L50.6905 67.7137L45.5812 68.8493L45.3893 68.8914V68.7231C45.4008 66.0766 45.4545 63.43 45.5428 60.7834H45.539Z" fill="#414042"/>
<path d="M87.9026 67.4485L81.4498 67.0732L81.5573 66.9405L84.9007 72.9939L84.8125 72.926C85.0581 73.1007 84.9622 73.1978 84.9814 73.2948C84.9814 73.3951 84.943 73.476 84.9238 73.5666C84.8662 73.7349 84.7971 73.8966 84.7165 74.0519C84.5629 74.3658 84.3787 74.6666 84.1906 74.9611C83.8067 75.5499 83.3998 76.1226 82.9699 76.6855C82.1139 77.8082 81.2079 78.905 80.279 79.9857C78.471 82.134 77.0161 84.5185 75.4883 86.8415L66.6287 100.964C69.3541 96.1562 72.2216 91.4131 75.1582 86.6926C76.6783 84.3599 78.018 81.9334 79.9297 79.7721C80.8701 78.7044 81.7876 77.6238 82.6513 76.5173C83.0851 75.964 83.4996 75.4011 83.8835 74.8252C84.0716 74.5372 84.2559 74.2428 84.4056 73.9452C84.4862 73.7963 84.5476 73.6443 84.6052 73.4954C84.6781 73.3757 84.6205 73.1234 84.6973 73.1784L84.609 73.1072L81.3577 67.0214L81.277 66.8726L81.4651 66.8887L87.8988 67.4517L87.9026 67.4485Z" fill="#414042"/>
<path d="M75.8415 111.395C75.7494 111.395 75.638 111.411 75.5497 111.427C75.5114 111.427 75.496 111.443 75.4576 111.443C75.0354 110.269 74.6131 109.078 74.1909 107.901C73.1083 104.746 72.045 101.605 71.1084 98.4177C71.1468 98.4792 71.1621 98.5407 71.1813 98.6021C72.4481 101.634 73.5306 104.711 74.6323 107.791C75.0354 108.997 75.4576 110.188 75.8415 111.395Z" fill="#414042"/>
</g>
<defs>
<linearGradient id="paint0_linear_26_289" x1="40.5679" y1="13.4173" x2="79.4273" y2="112.284" gradientUnits="userSpaceOnUse">
<stop stop-color="#FFFFC7"/>
<stop offset="1" stop-color="#FF9E54"/>
</linearGradient>
<clipPath id="clip0_26_289">
<rect width="133" height="112" fill="white"/>
</clipPath>
</defs>
</svg>
