<svg width="126" height="126" viewBox="0 0 126 126" fill="none" xmlns="http://www.w3.org/2000/svg">
<g clip-path="url(#clip0_26_245)">
<path d="M118.101 70.8761C118.101 85.5039 112.399 98.8106 103.1 108.689C99.0772 112.959 94.3643 116.587 89.1723 119.409C83.7492 122.344 77.7815 124.389 71.4552 125.345C68.704 125.79 65.8666 126.004 62.9982 126.004C45.2467 126.004 29.4568 117.608 19.3864 104.567C12.1844 95.2477 7.89905 83.5551 7.89905 70.8761C7.89905 49.9676 19.5519 31.7631 36.6932 22.4125C40.5993 20.3016 44.7847 18.6357 49.1872 17.4975C53.6036 16.3593 58.2199 15.7488 62.9982 15.7488C64.3187 15.7488 65.6356 15.7971 66.9388 15.8971C79.3984 16.7697 90.7237 21.7985 99.5253 29.6005C110.916 39.6926 118.101 54.4514 118.101 70.8761Z" fill="url(#paint0_linear_26_245)"/>
<path d="M25.623 33.491C28.7603 31.2767 32.3665 29.5211 34.6385 26.4238C37.5241 22.4918 37.693 17.1732 39.9891 12.8687C42.9678 7.28801 49.2562 4.09757 55.5239 3.24219C56.9477 3.04904 58.3785 2.9835 59.8092 2.96971C60.4091 2.5972 61.1745 2.25574 62.0433 1.92462C62.0708 1.91083 62.0915 1.88668 62.1191 1.87289C66.6975 -0.420783 72.2757 -0.620832 77.0058 1.34517C81.7358 3.31117 85.5351 7.40183 87.1416 12.2685C87.7588 14.1345 88.0932 16.1557 89.2447 17.7492C91.8855 21.3949 98.1015 21.8882 99.3978 26.203C100.136 28.6519 98.8427 31.3664 99.5667 33.8221C100.425 36.7366 103.955 37.5127 106.548 39.0924C112.243 42.5657 110.647 47.998 108.455 50.985C107.52 52.6233 106.058 55.6482 105.269 59.7389C104.9 62.1188 104.624 64.4883 105.083 66.8337C105.821 70.6036 108.33 73.7285 110.23 77.0707C112.126 80.4095 113.423 84.6243 111.613 88.0113C108.375 94.068 98.6876 92.4469 93.7231 97.1895C91.0615 99.728 90.2824 103.591 88.9068 107.002C83.2183 121.075 64.2187 127.745 50.9076 120.454C39.6926 114.311 34.6488 99.559 38.3584 87.5009C34.2592 82.4824 31.808 76.1705 32.17 69.662C32.3734 65.9887 33.3146 62.1636 31.9907 58.7317C29.5154 52.3267 20.0621 49.664 19.7139 42.8037C19.5208 38.9682 22.4857 35.7088 25.623 33.4945V33.491Z" fill="#005C82"/>
<path d="M77.2091 103.905C77.1091 104.136 77.0126 104.35 76.9298 104.564C75.0337 109.165 72.1653 115.018 71.5551 122.127C71.4585 123.165 71.4241 124.237 71.4585 125.341C68.7074 125.786 65.87 126 63.0016 126C45.2501 126 29.4601 117.605 19.3898 104.564C21.0377 100.952 23.6923 97.6551 26.116 94.8027C29.2981 91.0604 32.4768 87.3319 35.6761 83.6068C37.9826 80.9027 40.2924 78.1813 42.5989 75.4772C43.0436 74.9667 43.4883 74.5356 43.9503 74.1907C45.4673 73.0697 47.1152 72.8386 49.0114 72.6558C49.4733 72.573 53.345 72.2764 55.0274 72.1109C55.3894 72.0764 55.6548 72.0626 55.7514 72.0453C58.0578 71.7832 62.2776 71.897 66.7767 72.4903C72.5618 73.2491 78.8088 74.815 82.1047 77.388C82.1047 77.388 82.1219 77.388 82.1219 77.4053C82.2874 77.5191 82.4356 77.6536 82.5839 77.7847C90.0824 84.545 80.5739 96.4169 77.2091 103.905Z" fill="#001848"/>
<path d="M60.5746 49.4915L69.6245 49.3501L66.4458 75.1047C66.4458 75.1047 52.3969 87.6733 44.9295 83.7103C40.0891 81.1407 54.8516 72.7731 54.8516 72.7731L60.5746 49.4915Z" fill="#FDCBB2"/>
<path d="M69.2521 52.3682L57.7854 60.8358L56.0479 67.903L68.1592 61.2186L69.2521 52.3682Z" fill="#EAB7A0"/>
<path d="M78.8536 48.9982C80.3912 45.6422 80.436 40.7548 77.609 39.8373C76.7643 39.5648 75.7197 39.6614 74.6372 40.0236C67.742 38.7543 79.6707 18.025 62.6155 14.262C53.1243 12.1684 46.8049 13.8447 40.1028 38.468C37.4516 48.2083 39.2064 60.401 48.1046 64.1916C54.7929 67.0406 64.5151 61.2667 70.0347 54.0857C73.2961 53.8994 76.9057 53.2579 78.857 49.0016L78.8536 48.9982Z" fill="#FDCBB2"/>
<path d="M62.5155 33.3323C61.2088 30.98 58.2681 29.5382 55.741 30.8834C55.2721 31.1317 55.6893 31.8457 56.1581 31.5939C58.2922 30.4592 60.7262 31.8043 61.8053 33.7462C62.0638 34.2084 62.774 33.7945 62.5155 33.3288V33.3323Z" fill="#001848"/>
<path d="M60.7292 34.313C61.0052 33.2058 60.5549 32.1402 59.7235 31.9328C58.8921 31.7255 57.9945 32.4549 57.7186 33.562C57.4427 34.6691 57.893 35.7348 58.7243 35.9421C59.5557 36.1495 60.4533 35.4201 60.7292 34.313Z" fill="#001848"/>
<path d="M50.1042 31.8561C49.4733 30.7834 48.5838 29.7383 47.4255 29.2175C46.4739 28.7898 45.4397 28.7726 44.595 29.4383C44.4192 29.5762 44.4502 29.8763 44.595 30.0212C44.7674 30.1936 45.0018 30.1591 45.1776 30.0212C45.743 29.5728 46.5256 29.6763 47.1703 30.0039C48.1322 30.4937 48.8528 31.3525 49.394 32.27C49.6629 32.7287 50.3766 32.3114 50.1042 31.8527V31.8561Z" fill="#001848"/>
<path d="M48.3025 32.7743C48.484 31.6652 48.1514 30.6875 47.5595 30.5905C46.9676 30.4935 46.3406 31.314 46.159 32.4232C45.9775 33.5323 46.3101 34.51 46.902 34.607C47.4939 34.7039 48.1209 33.8834 48.3025 32.7743Z" fill="#001848"/>
<path d="M51.6626 33.8877C48.9079 40.648 44.5778 39.8788 44.0917 41.9793C43.609 44.0799 50.3008 44.7593 50.3008 44.7593L51.6626 33.8877Z" fill="#EAB7A0"/>
<path d="M55.7272 48.1359C55.2238 49.0085 54.5378 49.7846 53.6828 50.3813C52.8416 50.9952 51.759 51.3436 50.6696 51.285C49.5836 51.2229 48.5562 50.771 47.7598 50.1122C46.9531 49.4569 46.3119 48.6533 45.8326 47.7668C46.5808 48.4394 47.3117 49.0982 48.1218 49.5914C48.9355 50.0778 49.8077 50.4227 50.711 50.4606C52.5485 50.5986 54.2344 49.4362 55.7237 48.1359H55.7272Z" fill="#CA807A"/>
<path d="M66.3699 27.9243C66.3699 27.9243 62.9188 25.2201 58.9438 24.7062C54.9687 24.1923 53.962 25.4616 53.962 25.4616C53.962 25.4616 54.8929 22.5367 58.3405 22.6471C63.729 22.8195 66.3733 27.9208 66.3733 27.9208L66.3699 27.9243Z" fill="#005C82"/>
<path d="M44.002 26.1547C44.002 26.1547 44.626 24.4853 47.3221 24.6268C49.9284 24.7647 51.828 25.8133 51.828 25.8133C51.828 25.8133 50.4628 24.0473 48.2943 23.2506C43.578 21.5191 44.002 26.1547 44.002 26.1547Z" fill="#005C82"/>
<path d="M73.4822 46.8184C72.9754 46.2769 72.8099 45.494 72.8754 44.7524C72.9272 43.997 73.2616 43.29 73.696 42.6967C74.1442 42.1069 74.7268 41.6689 75.3474 41.3412C75.9783 41.0342 76.6574 40.8514 77.3814 40.8652C76.9608 41.4688 76.5264 41.9276 76.1127 42.3759C75.7335 42.8485 75.3129 43.2417 75.006 43.697C74.3338 44.573 73.8201 45.4319 73.4857 46.8184H73.4822Z" fill="#CA807A"/>
<path d="M103.1 108.685C99.0771 112.955 94.3643 116.584 89.1722 119.405L84.7731 113.7L77.2057 103.905L69.2625 93.5988C67.6628 91.5052 66.9215 88.9011 67.1698 86.2936L67.2353 85.7176C67.7628 80.3093 72.2963 76.3359 77.5194 76.3359C78.0951 76.3359 78.6743 76.3842 79.2673 76.4842C80.2568 76.6498 81.2118 76.9637 82.1012 77.3914C82.1012 77.3914 82.1185 77.3914 82.1185 77.4086C83.8181 78.233 85.2661 79.5195 86.3038 81.1509L95.3365 95.958L103.1 108.689V108.685Z" fill="#001848"/>
</g>
<defs>
<linearGradient id="paint0_linear_26_245" x1="39.7064" y1="20.8983" x2="86.3313" y2="120.838" gradientUnits="userSpaceOnUse">
<stop stop-color="#FFFFC7"/>
<stop offset="1" stop-color="#FF9E54"/>
</linearGradient>
<clipPath id="clip0_26_245">
<rect width="126" height="126" fill="white"/>
</clipPath>
</defs>
</svg>
