<svg width="155" height="123" viewBox="0 0 155 123" fill="none" xmlns="http://www.w3.org/2000/svg">
<path d="M141.561 72.2145C141.561 87.9525 132.534 102.003 118.393 111.317C107.299 118.609 93.0417 122.997 77.502 122.997C60.6597 122.997 45.3083 117.83 33.869 109.4C21.2954 100.135 13.4393 86.904 13.4393 72.2145C13.4393 52.1456 28.1373 34.7839 49.4648 26.551C51.8617 25.6105 54.3508 24.8034 56.92 24.1203C59.5855 23.3926 62.3231 22.8143 65.1408 22.3727H65.217C69.2011 21.7499 73.3055 21.4321 77.502 21.4321C79.5141 21.4321 81.5062 21.5084 83.4822 21.6609C90.5727 22.1757 97.3185 23.6055 103.543 25.8075C103.619 25.8393 103.716 25.8679 103.792 25.8838L104.02 25.9759C126.153 33.9673 141.561 51.6785 141.561 72.2177V72.2145Z" fill="url(#paint0_linear_26_351)"/>
<path d="M118.394 111.316C107.299 118.609 93.0418 122.997 77.5021 122.997C60.6597 122.997 45.3084 117.83 33.8691 109.4C30.1695 98.1744 32.2417 82.1632 55.7898 79.564C56.5393 79.4274 57.3049 79.3066 58.0905 79.1986C62.267 78.6203 67.0207 78.3947 72.5961 78.5154C76.6764 78.6076 80.4922 78.9253 84.0154 79.4274C99.7274 81.6007 109.656 87.174 111.668 91.4604C114.313 97.0655 116.534 103.856 118.394 111.316V111.316Z" fill="black"/>
<path d="M82.6567 50.0865L63.213 47.0806L57.9863 79.8054L83.7669 91.114L84.0756 80.5584L82.6567 50.0865Z" fill="#FDCBB2"/>
<path d="M61.7539 59.0215L83.1856 61.4268L83.7788 74.1844L61.7539 59.0215Z" fill="#EAB7A0"/>
<path d="M58.0383 12.999C62.6237 10.6509 67.6219 8.9573 72.4117 7.10165C77.2094 5.25872 81.8389 3.25691 85.4382 0C84.2799 1.9605 82.4161 3.67634 80.2557 5.04265C78.1033 6.43438 75.6903 7.51155 73.2494 8.46797C68.3113 10.3236 63.2409 11.7376 58.0383 12.999Z" fill="#EAB541"/>
<path d="M67.9626 11.5405C70.4116 10.4348 72.9488 9.62452 75.482 8.88416C78.0151 8.14381 80.5403 7.47019 83.0374 6.80927C85.5305 6.13883 87.9955 5.48744 90.4044 4.70896C92.8173 3.92731 95.1621 3.03761 97.6312 1.96045C96.2964 3.93684 94.1681 5.54782 91.8233 6.79656C89.4665 8.05484 86.8892 8.99855 84.2559 9.69124C81.6225 10.3935 78.925 10.8574 76.2155 11.1751C73.5059 11.4929 70.7764 11.6613 67.9586 11.5437L67.9626 11.5405Z" fill="#EAB541"/>
<path d="M70.7283 7.3813C73.4378 6.76487 76.1433 6.4503 78.8248 6.19928C81.5063 5.95144 84.1637 5.76714 86.785 5.5892C89.4064 5.40173 91.9957 5.22697 94.5689 4.91876C97.1462 4.60736 99.6874 4.18158 102.409 3.59375C100.525 5.26828 97.9799 6.43441 95.3305 7.21289C92.669 7.99455 89.8794 8.43304 87.1177 8.61416C84.3481 8.80481 81.5904 8.75397 78.8649 8.55696C76.1353 8.35996 73.4298 8.01679 70.7323 7.37494L70.7283 7.3813Z" fill="#EAB541"/>
<path d="M72.6361 9.34167C75.4178 8.9699 78.1514 8.89682 80.8489 8.88729C83.5504 8.87775 86.2118 8.93177 88.8452 8.98897C91.4745 9.03345 94.0718 9.09382 96.6732 9.01439C99.2785 8.93495 101.864 8.73795 104.649 8.3916C102.541 9.88819 99.8476 10.8224 97.106 11.3594C94.3484 11.8995 91.5186 12.087 88.745 12.0235C85.9673 11.9663 83.2337 11.6708 80.5523 11.2354C77.8668 10.7969 75.2294 10.2155 72.6361 9.33849V9.34167Z" fill="#EAB541"/>
<path d="M80.0553 13.9395C82.853 13.6789 85.5906 13.7139 88.2881 13.8124C90.9856 13.9109 93.643 14.0698 96.2684 14.2318C98.8937 14.3812 101.483 14.5432 104.084 14.5686C106.69 14.594 109.287 14.4987 112.093 14.2668C109.892 15.6776 107.143 16.5037 104.369 16.9295C101.583 17.3616 98.7414 17.4347 95.9758 17.26C93.2061 17.0947 90.4926 16.688 87.8432 16.1478C85.1898 15.6013 82.5925 14.9182 80.0593 13.9395H80.0553Z" fill="#EAB541"/>
<path d="M86.3642 68.9418L61.754 59.0249L55.2808 12.1699C133.5 -1.29944 97.4267 66.8891 97.4267 66.8891C97.4267 66.8891 94.0799 70.6894 86.3642 68.9418Z" fill="#FDCBB2"/>
<path d="M65.8824 23.0207C55.5934 15.0039 89.5427 13.2627 64.2591 9.39252C46.6712 6.7012 46.3104 21.1269 48.8677 25.5214C54.904 35.9054 56.9842 38.1963 61.8381 42.0665L69.7022 42.3239C65.1769 33.9925 69.3935 25.7533 65.8864 23.0175L65.8824 23.0207Z" fill="#EAB541"/>
<path d="M84.3401 21.4925C98.3406 18.7376 103.688 25.9949 103.688 25.9949C109.684 19.8688 111.167 5.70995 89.9996 5.63051C75.5742 5.5765 57.349 8.99863 57.5214 15.5633C57.6937 22.128 67.3855 24.832 84.3441 21.4925H84.3401Z" fill="#EAB541"/>
<path d="M62.3733 46.6468C65.1538 45.6227 65.5084 41.5516 63.1654 37.5538C60.8224 33.556 56.6689 31.1453 53.8885 32.1694C51.108 33.1935 50.7534 37.2646 53.0964 41.2624C55.4394 45.2602 59.5928 47.6709 62.3733 46.6468Z" fill="#FDCBB2"/>
<path d="M54.6394 35.019C55.437 34.6758 56.423 34.7044 57.2888 34.9395C58.1746 35.1683 58.9282 35.6449 59.5133 36.1883C60.0945 36.7475 60.4593 37.3989 60.6837 38.063C60.8841 38.7303 60.9242 39.4198 60.7278 40.1061C60.1466 39.5596 59.7258 39.0353 59.3129 38.5301C58.856 38.0503 58.4993 37.5546 58.0343 37.151C57.1565 36.2995 56.2266 35.61 54.6434 35.019H54.6394Z" fill="#CA807A"/>
<path d="M91.3263 36.0706L74.9088 36.0197C74.9088 36.0197 76.7405 32.7469 83.4422 32.8105C90.1439 32.8772 91.3303 36.0674 91.3303 36.0674L91.3263 36.0706Z" fill="#EAB541"/>
<path d="M102.052 34.8474C98.6852 33.9672 96.2443 36.4838 96.2443 36.4838L104.465 38.1615C104.465 38.1615 105.347 35.7085 102.052 34.8474V34.8474Z" fill="#EAB541"/>
<path d="M79.6945 42.791C79.7747 41.4787 80.6725 40.122 82.1595 39.4865C82.7928 39.2164 83.5303 39.1211 84.2278 39.2831C85.1617 39.4992 85.8431 40.1093 86.3481 40.7416C86.6768 41.1546 87.5065 40.7734 87.1738 40.3571C86.2559 39.2037 84.809 38.2695 82.9973 38.476C81.4782 38.6476 80.2196 39.5659 79.5061 40.6018C79.0412 41.2754 78.7847 42.0221 78.7366 42.7879C78.7085 43.2772 79.6665 43.274 79.6945 42.7879V42.791Z" fill="#001848"/>
<path d="M84.6828 41.9098C84.7432 40.6982 83.9834 39.6906 82.9858 39.6594C81.9882 39.6282 81.1306 40.5851 81.0703 41.7968C81.01 43.0085 81.7698 44.016 82.7673 44.0472C83.7649 44.0784 84.6225 43.1215 84.6828 41.9098Z" fill="#3D937D"/>
<path d="M93.3184 38.53C98.1643 45.8128 96.9739 55.6153 96.9739 55.6153L90.2401 52.3139L93.3184 38.5332V38.53Z" fill="#EAB7A0"/>
<path d="M97.6993 43.8714C97.7234 43.4679 97.8476 43.0548 98.0761 42.7212C98.1322 42.6386 98.1923 42.5591 98.2605 42.4829C98.3206 42.413 98.3567 42.378 98.4569 42.2922C98.533 42.2287 98.6092 42.1715 98.6934 42.1111C98.7655 42.0603 98.7775 42.0539 98.9058 41.9872C98.994 41.9427 99.0822 41.9014 99.1743 41.8664C99.2184 41.8474 99.2665 41.8315 99.3106 41.8156C99.2305 41.8442 99.3667 41.7997 99.3948 41.7934C99.487 41.7679 99.5832 41.7457 99.6794 41.7298C99.7275 41.7203 99.7756 41.7139 99.8237 41.7076C99.8958 41.698 99.7435 41.7139 99.8197 41.7076C99.8477 41.7076 99.8758 41.7044 99.8998 41.7012C99.996 41.6949 100.088 41.6949 100.184 41.7012C100.224 41.7012 100.333 41.7139 100.237 41.7012C100.289 41.7076 100.341 41.7139 100.393 41.7234C100.485 41.7393 100.573 41.7616 100.657 41.787C100.742 41.8124 100.669 41.7902 100.657 41.787C100.681 41.7965 100.705 41.8029 100.73 41.8124C100.778 41.8315 100.826 41.8505 100.87 41.8728C100.914 41.895 100.962 41.9173 101.006 41.9427C101.01 41.9459 101.066 41.9776 101.022 41.9522C100.974 41.9204 101.058 41.9776 101.07 41.984C101.154 42.0444 101.235 42.1079 101.303 42.181C101.251 42.1302 101.343 42.2287 101.359 42.2477C101.395 42.2954 101.431 42.3399 101.463 42.3907C101.535 42.4988 101.539 42.5146 101.595 42.6417C101.784 43.1056 102.71 42.9055 102.521 42.4384C102.168 41.5836 101.291 40.9672 100.132 40.9386C99.014 40.91 97.9839 41.4375 97.3907 42.1619C96.9739 42.6672 96.7855 43.2677 96.7534 43.8682C96.7254 44.3576 97.6833 44.3544 97.7114 43.8682L97.6993 43.8714Z" fill="#001848"/>
<path d="M100.601 43.4883C100.645 42.5993 100.107 41.8606 99.3997 41.8385C98.6918 41.8163 98.0822 42.5191 98.0379 43.4081C97.9936 44.2971 98.5316 45.0358 99.2394 45.0579C99.9472 45.0801 100.557 44.3773 100.601 43.4883Z" fill="#3D937D"/>
<path d="M82.328 55.269C84.5525 56.4765 87.0135 57.3757 89.5948 57.8396C90.8894 58.0684 92.2041 58.1415 93.5108 58.2304C94.8215 58.3353 96.1401 58.3385 97.5029 58.3131L97.527 58.3861C96.2564 58.8405 94.8535 58.9581 93.4747 58.9899C92.0839 58.9962 90.7171 58.7452 89.4024 58.4275C86.757 57.811 84.3321 56.7148 82.2719 55.3294L82.328 55.269V55.269Z" fill="#CA807A"/>
<defs>
<linearGradient id="paint0_linear_26_351" x1="50.4188" y1="26.1825" x2="86.8739" y2="124.797" gradientUnits="userSpaceOnUse">
<stop offset="0.05" stop-color="#477FA3"/>
<stop offset="1" stop-color="#005C82"/>
</linearGradient>
</defs>
</svg>
