<svg width="132" height="120" viewBox="0 0 132 120" fill="none" xmlns="http://www.w3.org/2000/svg">
<path d="M127.087 64.4842C127.087 81.8375 118.335 97.3152 104.628 107.492C94.1023 115.315 80.6522 119.997 65.9981 119.997C65.1381 119.997 64.2819 119.979 63.4219 119.948C62.195 119.899 61.0102 119.833 59.8024 119.715C55.0706 119.285 50.4993 118.354 46.1535 116.992C41.4026 115.53 36.9077 113.522 32.776 111.063C32.6461 110.997 32.539 110.914 32.4091 110.848H32.39C32.2447 110.764 32.0957 110.664 31.9504 110.566C30.4139 109.653 28.9539 108.673 27.5473 107.628C13.7379 97.4645 4.9126 81.9035 4.9126 64.4842C4.9126 40.0243 22.3263 19.2496 46.5013 11.8582C49.2074 11.028 51.9823 10.3646 54.8336 9.89914C58.4532 9.28434 62.1798 8.96826 65.9981 8.96826C69.6176 8.96826 73.1417 9.24961 76.5969 9.79841C83.4691 10.8925 89.9553 13.0357 95.8375 16.0263C114.478 25.54 127.084 43.6749 127.084 64.4842H127.087Z" fill="url(#paint0_linear_26_265)"/>
<path d="M30.2572 85.3248C40.2215 56.7002 26.0758 2.18109 72.7709 0.225548C108.229 -1.25761 97.3129 49.6699 95.4324 75.9048C95.4324 75.9048 85.8847 83.7617 65.9025 82.3863C45.9203 81.0142 30.2572 85.3248 30.2572 85.3248Z" fill="#603913"/>
<path d="M51.0382 71.622C53.236 69.5171 53.2818 67.7874 58.5602 67.2142C77.8047 65.1093 80.2356 63.5845 80.1897 68.5724C80.1553 73.5498 66.9269 83.3762 58.415 80.7259C49.9145 78.0722 46.9906 75.5192 51.0382 71.622Z" fill="#A380B7"/>
<path d="M69.7284 45.4393L79.4634 46.7696L75.4234 69.7255L89.2634 77.1031L58.2926 101.82C58.2926 101.82 51.5886 88.7391 47.1778 80.0903C44.6705 75.1754 59.4201 67.2004 59.4201 67.2004L69.7246 45.4358L69.7284 45.4393Z" fill="#FDCBB2"/>
<path d="M78.5233 49.656L64.7062 56.0471L61.5797 62.6536L77.9347 55.4567L78.5233 49.656Z" fill="#EAB7A0"/>
<path d="M90.5286 42.459C92.0536 38.7772 91.7058 33.5809 88.3232 32.8168C87.3142 32.5875 86.0987 32.7716 84.8604 33.2336C76.6886 32.4 88.9501 9.48221 68.6889 6.75208C57.4136 5.23072 43.9482 12.2505 44.6514 37.8324C44.9457 48.5862 53.2933 56.78 53.2933 56.78C63.9647 58.7495 74.9534 55.349 80.6216 48.5202C84.4208 48.0791 88.5908 47.1273 90.5248 42.459H90.5286Z" fill="#FDCBB2"/>
<path d="M70.3247 31.1981C70.0342 30.0935 69.3424 29.0272 68.2799 28.2943C67.2364 27.5579 65.7878 27.1863 64.3737 27.5162C65.6732 26.9188 67.3435 26.9674 68.7462 27.5788C70.1604 28.1797 71.3338 29.2877 72.0409 30.625L70.3247 31.1981Z" fill="#001848"/>
<path d="M69.6597 30.4142C69.8452 29.2117 69.1889 28.1341 68.1938 28.0073C67.1988 27.8805 66.2417 28.7526 66.0562 29.9552C65.8707 31.1577 66.527 32.2353 67.5221 32.3621C68.5171 32.4889 69.4742 31.6168 69.6597 30.4142Z" fill="black"/>
<path d="M46.7383 25.3454C47.9499 24.5812 49.4559 24.1714 50.8853 24.4215C52.3378 24.6542 53.4041 25.6754 53.8246 26.7625C53.1137 25.7796 51.9403 25.1752 50.8051 25.2481C49.6699 25.2968 48.6379 25.8664 47.9308 26.5993L46.7345 25.3419L46.7383 25.3454Z" fill="#001848"/>
<path d="M53.0724 28.1625C53.342 26.9908 53.0028 25.9349 52.3147 25.8042C51.6267 25.6734 50.8504 26.5173 50.5808 27.689C50.3112 28.8607 50.6504 29.9165 51.3385 30.0473C52.0265 30.178 52.8029 29.3342 53.0724 28.1625Z" fill="black"/>
<path d="M58.9577 25.804C54.2832 34.8349 51.6306 34.7932 51.6306 34.7932C53.2932 37.8464 55.7776 40.9134 55.7776 40.9134L58.9577 25.804Z" fill="#EAB7A0"/>
<path d="M75.8172 24.3694C75.8172 24.3694 71.5173 21.806 66.8237 21.615C62.1263 21.424 61.0752 22.862 61.0752 22.862C61.0752 22.862 61.8778 19.6768 65.914 19.4858C72.2282 19.1906 75.8172 24.3694 75.8172 24.3694Z" fill="#603913"/>
<path d="M47.5524 21.9101C47.5524 21.9101 48.6723 20.3089 51.7338 21.0487C54.6921 21.7677 56.6147 23.2786 56.6147 23.2786C56.6147 23.2786 55.4757 21.1355 53.1824 19.8295C48.1907 16.9848 47.5524 21.9066 47.5524 21.9066V21.9101Z" fill="#603913"/>
<path d="M84.0616 40.5453C83.4462 40.0035 83.1978 39.1872 83.2207 38.4022C83.2283 37.6033 83.5609 36.8322 84.0157 36.1757C84.4896 35.5192 85.1279 35.0121 85.8197 34.6162C86.523 34.2375 87.2951 33.9875 88.1321 33.9319C87.6773 34.5849 87.1995 35.099 86.7447 35.6026C86.3281 36.1306 85.8656 36.5821 85.5407 37.0927C84.8183 38.0826 84.2985 39.0622 84.0577 40.5488L84.0616 40.5453Z" fill="#CA807A"/>
<path d="M60.8764 42.6223C60.9681 43.2371 59.3055 43.9561 57.1575 44.2236C55.0094 44.4945 53.1939 44.2131 53.1022 43.5983L60.8764 42.6223Z" fill="#CA807A"/>
<path d="M51.2331 90.3578L46.1535 116.996C41.2573 115.485 36.6517 113.408 32.4129 110.851C32.3938 110.9 32.4129 110.952 32.4129 111C32.3938 110.952 32.3938 110.9 32.3938 110.851C30.7121 109.854 29.1029 108.774 27.5511 107.631L28.866 88.5516C28.9921 86.6759 29.7068 84.8975 30.8764 83.3866C31.2968 82.8551 31.7708 82.3584 32.3021 81.9069L32.7607 81.5075C33.4755 80.8927 34.2781 80.3786 35.0999 79.9791H35.119C37.6951 78.7183 40.6726 78.4682 43.3786 79.1837C44.4756 79.4651 45.5343 79.8992 46.5051 80.5106C46.9982 80.7919 47.476 81.1427 47.9117 81.5248C48.2595 81.8062 48.5691 82.1396 48.8787 82.4731C50.377 84.116 51.2179 86.1584 51.344 88.2529C51.3975 88.951 51.3631 89.6631 51.2331 90.3612V90.3578Z" fill="#2E2F79"/>
<path d="M63.4219 119.948C62.195 119.899 61.0102 119.833 59.8024 119.715C55.0705 119.285 50.4993 118.354 46.1535 116.992C41.2573 115.481 36.6516 113.404 32.4129 110.848C32.3747 110.615 32.3594 110.365 32.3403 110.132C32.2677 109.038 32.302 107.923 32.4855 106.794C33.4716 100.698 34.1673 93.2616 34.5877 87.6138C34.6259 86.9157 34.6794 86.2522 34.7329 85.6201C34.7712 85.1546 34.8056 84.7065 34.8438 84.2932C34.9699 82.5148 35.0463 81.0872 35.0999 80.1737V80.0903C35.119 80.0417 35.119 80.007 35.119 79.9757C35.1572 79.3783 35.1725 79.0622 35.1725 79.0622C38.9717 77.9993 43.4703 75.6096 48.183 72.7857C48.9513 72.3203 49.7195 71.8548 50.5031 71.3755L50.7209 71.9556L51.0497 72.8691L53.1862 78.7635L54.4284 82.1675L54.7227 82.949C54.868 83.3311 55.017 83.7444 55.1623 84.1612L59.1258 95.0539C59.1258 95.0539 59.2367 95.4186 59.4201 96.0994C59.4737 96.2488 59.5119 96.4329 59.5654 96.6135C59.6036 96.7455 59.638 96.8775 59.6762 97.0303C59.7488 97.2804 59.8215 97.5444 59.8941 97.8431C60.0584 98.4891 60.2419 99.2533 60.4407 100.101C61.4115 104.168 62.6155 110.181 62.9824 116.127C63.055 117.273 63.2002 118.569 63.4219 119.948Z" fill="#2E2F79"/>
<path d="M104.628 107.492C94.1022 115.314 80.6521 119.997 65.998 119.997C65.138 119.997 64.2819 119.979 63.4219 119.948C62.195 119.899 61.0101 119.833 59.8023 119.715C59.8214 117.624 59.875 115.464 60.0049 113.338C60.4062 106.763 59.7679 103.922 59.6036 100.785C59.5654 100.07 59.5501 99.3401 59.5845 98.5447C59.6036 98.0619 59.638 97.5652 59.6762 97.0337C59.7144 96.7663 59.7488 96.4849 59.787 96.2036C60.2457 92.7996 62.8562 87.9507 67.2249 82.4522C68.211 81.2226 69.2736 79.9791 70.405 78.7009C72.6333 76.2278 75.1559 73.654 77.969 71.0802C78.6264 70.4654 79.3029 69.8506 79.9794 69.2532C79.9794 69.2532 79.9985 69.3365 80.052 69.5033C80.289 70.2014 81.2598 72.1952 84.9673 73.588C85.6056 73.8381 86.3395 74.0535 87.1612 74.2515C88.6404 74.6162 91.9504 75.1129 95.203 76.0958C98.5856 77.1101 101.926 78.6697 103.096 81.1427C104.686 91.6881 105.343 100.438 104.632 107.496L104.628 107.492Z" fill="#2E2F79"/>
<path d="M35.3368 83.6958V83.7305C35.3177 85.9222 35.2986 88.1487 35.1724 90.3717C35.0272 92.5982 34.752 94.7899 34.515 96.999C34.2398 99.2081 33.9685 101.417 33.6398 103.626C33.4754 104.72 33.2919 105.818 33.1085 106.898C32.9059 107.961 32.7798 109.024 32.7989 110.104V110.139L32.7798 110.802V110.851C32.7798 110.851 32.7798 110.868 32.7607 110.9L32.7798 110.966V111.066C32.6498 111 32.5428 110.917 32.4128 110.851H32.3937C32.2485 110.768 32.0994 110.667 31.9542 110.57L31.8816 110.139C31.7172 109.028 31.6637 107.881 31.7898 106.752L32.0459 103.432C32.2294 101.24 32.4664 99.031 32.7033 96.8392L33.5633 90.2814C33.8194 88.0897 34.0946 85.8806 34.4233 83.6715C34.515 82.876 34.6603 82.0945 34.7711 81.3304C34.8972 80.5662 35.0081 79.7708 35.1533 78.9893C35.2068 79.7708 35.2795 80.5662 35.2795 81.3651L35.333 83.7062L35.3368 83.6958Z" fill="#0D2263"/>
<path d="M56.8019 89.3575C54.8947 83.2338 53.4385 78.0549 51.1528 78.2564C48.8595 78.4613 41.3834 84.0153 41.3834 84.0153L45.0412 75.1303L54.3214 68.2112C54.3214 68.2112 50.4151 71.3303 52.502 74.6405C54.287 77.4818 60.5629 91.2192 59.2596 99.2672L56.8019 89.354V89.3575Z" fill="white"/>
<path d="M59.2596 99.2705C59.8559 88.7321 68.1996 78.6348 70.2942 76.6168C72.3811 74.5987 79.8304 68.6869 79.5246 65.8352C81.7491 69.6213 85.2846 72.9766 85.2846 72.9766L79.8954 83.6296C79.8954 83.6296 75.3929 78.4403 72.8206 78.6661C70.2445 78.8953 65.4324 86.9224 63.743 89.9582C62.0498 92.994 59.2635 99.274 59.2635 99.274L59.2596 99.2705Z" fill="white"/>
<defs>
<linearGradient id="paint0_linear_26_265" x1="40.1757" y1="14.1611" x2="84.196" y2="118.045" gradientUnits="userSpaceOnUse">
<stop offset="0.05" stop-color="#477FA3"/>
<stop offset="1" stop-color="#005C82"/>
</linearGradient>
</defs>
</svg>
