<svg width="132" height="117" viewBox="0 0 132 117" fill="none" xmlns="http://www.w3.org/2000/svg">
<g clip-path="url(#clip0_26_225)">
<path d="M124.259 65.4405C124.259 76.1892 120.53 86.1831 114.151 94.451C112.617 96.4704 110.911 98.3834 109.062 100.174C106.587 102.58 103.835 104.787 100.872 106.745C91.1463 113.193 79.0698 117 66.0018 117C61.2448 117 56.6081 116.49 52.1829 115.535C50.1598 115.103 48.1914 114.581 46.274 113.961C39.9314 111.955 34.11 108.997 29.0031 105.277C16.019 95.8253 7.74072 81.4797 7.74072 65.4405C7.74072 36.972 33.8294 13.8843 66.0018 13.8843C98.1743 13.8843 124.263 36.972 124.263 65.4438L124.259 65.4405Z" fill="url(#paint0_linear_26_225)"/>
<path d="M24.5924 54.3208C27.0201 56.2273 29.0031 57.6435 29.1416 60.321C29.5973 69.1858 50.4004 76.1763 64.0297 64.0856C67.5765 60.9372 72.9058 60.3242 74.9361 57.6371C75.7162 56.6048 76.2338 55.5112 77.5097 54.5918C80.4258 52.4853 86.5206 51.8272 88.1937 49.453C89.1451 48.1045 87.3991 46.4271 89.0904 45.3948C99.5776 38.9946 100.288 25.5201 93.5521 20.0102C90.348 17.3908 86.7684 8.91637 85.7551 7.19052C81.574 0.0741925 63.7418 -2.25813 50.0978 2.46135C38.6009 6.43888 28.788 11.8745 31.234 18.0457C26.765 20.9748 27.2643 27.2072 26.9946 30.6428C26.8415 32.5815 27.3883 34.5558 25.7698 36.4623C22.748 40.0237 21.1404 41.0043 20.1416 44.6722C19.5839 46.7239 22.6787 52.8176 24.5924 54.3208Z" fill="black"/>
<path d="M114.151 94.4509C112.617 96.4703 110.911 98.3833 109.062 100.174C106.587 102.58 103.835 104.787 100.872 106.745L75.7236 87.5604C73.3542 85.6797 71.9763 83.0119 71.9763 80.1892V80.157C71.9763 74.8375 76.7005 70.5341 82.5729 70.2696C83.0249 70.2245 83.4805 70.2245 83.9508 70.2535L84.5777 70.2987C87.4028 70.4696 90.0492 71.5793 91.9848 73.3987L114.151 94.4509Z" fill="#EAB541"/>
<path d="M109.062 100.174C106.587 102.58 103.835 104.787 100.872 106.745C91.1464 113.193 79.0699 117 66.0019 117C61.2449 117 56.6082 116.49 52.1829 115.535C51.8512 111.771 50.7723 108.38 49.5329 105.342C48.5742 102.996 47.5463 100.883 46.6933 98.9866C43.5037 91.8154 32.5609 79.8312 41.0287 73.2923C41.9873 72.5536 43.2267 71.9052 44.652 71.3342C52.2158 68.3567 65.2145 67.6341 70.1319 68.2019C70.7771 68.2793 76.788 68.7728 77.4004 68.8664C79.336 69.0503 81.0237 69.2987 82.5765 70.2697C82.6823 70.3019 82.7697 70.3632 82.8572 70.4245C83.3457 70.7632 83.8341 71.1665 84.2861 71.6568C90.1257 77.9183 95.9617 84.1346 101.801 90.396C104.451 93.2477 107.36 96.5639 109.07 100.174H109.062Z" fill="#EAB541"/>
<path d="M65.2837 46.5498L55.5037 46.2788L58.5109 70.9601C58.5109 70.9601 73.489 83.1895 81.6324 79.5088C86.907 77.1216 71.0869 68.902 71.0869 68.902L65.2874 46.5498H65.2837Z" fill="#B58876"/>
<path opacity="0.16" d="M55.8536 49.1724L68.1088 57.4403L69.8694 64.2276L56.8889 57.6532L55.8536 49.1724Z" fill="#001848"/>
<path d="M45.5268 45.8077C43.9193 42.5754 43.9558 37.9011 47.025 37.0623C47.9399 36.8139 49.0736 36.9236 50.2364 37.2849C57.7127 36.1752 45.1587 16.1714 63.6653 12.8229C73.963 10.9616 82.6385 12.8649 89.4733 36.5107C92.178 45.8658 88.2084 57.2951 78.5231 60.792C71.2437 63.4179 60.8293 57.7532 54.9788 50.8014C51.4576 50.5756 47.5645 49.9078 45.5268 45.8077Z" fill="#B58876"/>
<path d="M63.9934 31.3492C64.6568 30.3234 65.692 29.4782 66.9642 29.0814C68.127 28.7169 69.4101 28.762 70.5 29.2975C70.7042 29.3975 70.8901 29.1201 70.6823 29.0201C68.7795 28.0814 66.4575 28.562 64.901 29.8233C64.4162 30.2169 64.0079 30.6814 63.6799 31.1847C63.5632 31.3653 63.8767 31.5266 63.9934 31.346V31.3492Z" fill="#001848"/>
<path d="M69.361 32.228C69.5603 31.152 68.9794 30.172 68.0636 30.0392C67.1477 29.9063 66.2437 30.6708 66.0444 31.7468C65.8451 32.8228 66.4259 33.8028 67.3418 33.9357C68.2576 34.0685 69.1616 33.304 69.361 32.228Z" fill="#001848"/>
<path d="M78.0309 29.8815C78.8766 28.6459 80.6919 26.7233 82.4452 27.9975C82.6239 28.1298 82.8827 27.9008 82.7041 27.7685C81.986 27.2459 81.1038 27.1136 80.2472 27.4427C79.1281 27.8717 78.3298 28.8234 77.7174 29.7169C77.5971 29.8944 77.9106 30.0557 78.0309 29.8782V29.8815Z" fill="#001848"/>
<path d="M81.4931 31.0037C81.6895 29.9435 81.3301 29.0088 80.6904 28.916C80.0507 28.8232 79.3729 29.6074 79.1765 30.6676C78.9801 31.7277 79.3395 32.6624 79.9792 32.7552C80.6189 32.848 81.2967 32.0638 81.4931 31.0037Z" fill="#001848"/>
<path opacity="0.16" d="M75.1804 31.7589C78.0455 38.2655 82.7405 37.5946 83.229 39.6107C83.7175 41.6269 76.4708 42.1786 76.4708 42.1786L75.1804 31.7589Z" fill="#001848"/>
<path d="M70.5473 45.3239C70.7369 45.4949 70.9228 45.6626 71.1051 45.8368C71.2946 46.0046 71.4987 46.1562 71.6956 46.3142C72.0966 46.6239 72.523 46.9046 72.975 47.1401C73.8754 47.6175 74.9034 47.9014 75.9386 47.8562C76.9738 47.8272 77.9726 47.482 78.8547 46.9788C79.088 46.8659 79.2885 46.7142 79.4999 46.5723L79.8134 46.3562L80.105 46.1175C80.5169 45.8175 80.8632 45.4562 81.246 45.1174C80.6299 45.8949 79.8973 46.6142 79.0115 47.182C78.133 47.753 77.0649 48.1401 75.9495 48.1756C75.3918 48.2014 74.8377 48.1143 74.3055 47.9853C74.0467 47.8982 73.7879 47.8143 73.5364 47.7143C73.2958 47.5949 73.048 47.4917 72.8256 47.3498C71.9143 46.811 71.1597 46.1046 70.5437 45.3239H70.5473Z" fill="#001848"/>
<path opacity="0.16" d="M58.799 23.0328C58.799 23.0328 63.4684 22.3006 67.5219 23.6522C71.579 25.0039 71.8961 26.5297 71.8961 26.5297C71.8961 26.5297 72.4903 23.6425 69.144 22.1877C63.9131 19.9134 58.799 23.0361 58.799 23.0361V23.0328Z" fill="#001848"/>
<path opacity="0.16" d="M83.6372 22.0168C83.6372 22.0168 82.0588 21.0393 79.7442 22.6168C77.506 24.1394 76.4598 25.9975 76.4598 25.9975C76.4598 25.9975 76.5947 23.8652 78.0346 22.0619C81.1731 18.136 83.6372 22.0168 83.6372 22.0168Z" fill="#001848"/>
<path opacity="0.16" d="M51.3737 43.8045C51.3737 43.8045 52.7079 40.5173 47.2583 38.0527" stroke="#001848" stroke-miterlimit="10"/>
<path d="M57.3044 84.7508L49.5329 105.342L46.2741 113.964C39.9315 111.958 34.1101 109 29.0032 105.28L35.4697 78.8764C36.2024 76.1312 38.2073 73.7859 40.9959 72.4278C42.1623 71.8569 43.4017 71.502 44.6556 71.3343C45.2133 71.2407 45.7893 71.2117 46.3652 71.2117C50.6009 71.2117 54.6763 73.3408 56.579 76.9957L56.8415 77.5054C58.0262 79.7893 58.1829 82.3797 57.3117 84.754L57.3044 84.7508Z" fill="#EAB541"/>
</g>
<defs>
<linearGradient id="paint0_linear_26_225" x1="7.74072" y1="65.4405" x2="124.259" y2="65.4405" gradientUnits="userSpaceOnUse">
<stop offset="0.05" stop-color="#477FA3"/>
<stop offset="1" stop-color="#005C82"/>
</linearGradient>
<clipPath id="clip0_26_225">
<rect width="132" height="117" fill="white"/>
</clipPath>
</defs>
</svg>
